<svg width="24" height="18" viewBox="0 0 24 18" fill="none" xmlns="http://www.w3.org/2000/svg">
    <mask id="mask0_21_7555" style="mask-type:luminance" maskUnits="userSpaceOnUse" x="0" y="0" width="24" height="18">
        <path d="M0 0H24V18H0V0Z" fill="white"/>
    </mask>
    <g mask="url(#mask0_21_7555)">
        <path fill-rule="evenodd" clip-rule="evenodd" d="M0 0H24V18H0V0Z" fill="#73BE4A"/>
        <path fill-rule="evenodd" clip-rule="evenodd" d="M0 0V12H24V0H0Z" fill="#AF0100"/>
        <path d="M0 0H4.5V18H0V0Z" fill="#F7FCFF"/>
        <path fill-rule="evenodd" clip-rule="evenodd" d="M0.33316 1.67709L1.42263 0.0426636L2.48405 1.67704L1.4226 3.23657L0.33316 1.67709ZM1.41862 2.56906L2.02924 1.6719L1.41859 0.731613L0.791842 1.67186L1.41862 2.56906ZM1.5 1.54843H1.3125V1.93552H1.5V1.54843Z" fill="#B20000"/>
        <path fill-rule="evenodd" clip-rule="evenodd" d="M0.852795 3.13943L0.33316 3.88245L0.85278 4.5914L1.35905 3.88244L0.852795 3.13943ZM1.09583 3.89504L0.861697 4.21289L0.624749 3.87608L0.861067 3.52729L1.09583 3.89504Z" fill="#B20000"/>
        <path fill-rule="evenodd" clip-rule="evenodd" d="M1.9778 3.13943L1.45816 3.88245L1.97778 4.5914L2.48406 3.88244L1.9778 3.13943ZM2.22084 3.89504L1.9867 4.21289L1.74975 3.87608L1.98607 3.52729L2.22084 3.89504Z" fill="#B20000"/>
        <path fill-rule="evenodd" clip-rule="evenodd" d="M2.7278 3.13943L2.20816 3.88245L2.72778 4.5914L3.23406 3.88244L2.7278 3.13943ZM2.97084 3.89504L2.7367 4.21289L2.49975 3.87608L2.73607 3.52729L2.97084 3.89504Z" fill="#B20000"/>
        <path fill-rule="evenodd" clip-rule="evenodd" d="M3.85277 3.13943L3.33313 3.88245L3.85275 4.5914L4.35902 3.88244L3.85277 3.13943ZM4.0958 3.89504L3.86167 4.21289L3.62472 3.87608L3.86104 3.52729L4.0958 3.89504Z" fill="#B20000"/>
        <path fill-rule="evenodd" clip-rule="evenodd" d="M2.20816 1.67709L3.29763 0.0426636L4.35906 1.67704L3.2976 3.23657L2.20816 1.67709ZM3.29362 2.56906L3.90425 1.6719L3.29359 0.731613L2.66685 1.67186L3.29362 2.56906ZM3.375 1.54843H3.1875V1.93552H3.375V1.54843Z" fill="#B20000"/>
        <path d="M1.24211 9.30465L0.0277405 7.26533L0.34721 7.06262L1.22755 8.541L2.30171 6.56699L3.40257 8.54565L4.18038 7.25468L4.49882 7.45912L3.38975 9.29993L2.30533 7.35076L1.24211 9.30465Z" fill="#B20000"/>
        <path fill-rule="evenodd" clip-rule="evenodd" d="M0.5625 0.387085H0.764115V0.77418H0.5625V0.387085Z" fill="#B20000"/>
        <path fill-rule="evenodd" clip-rule="evenodd" d="M2.25 0H2.45162V0.387097H2.25V0Z" fill="#B20000"/>
        <path fill-rule="evenodd" clip-rule="evenodd" d="M3.9375 0.387085H4.13911V0.77418H3.9375V0.387085Z" fill="#B20000"/>
        <path fill-rule="evenodd" clip-rule="evenodd" d="M0.5625 2.70969H0.75V3.09678H0.5625V2.70969ZM2.25 2.70969H2.4375V3.09678H2.25V2.70969ZM4.125 2.70969H3.9375V3.09678H4.125V2.70969Z" fill="#B20000"/>
        <path fill-rule="evenodd" clip-rule="evenodd" d="M0.5625 4.6452H0.75V5.0323H0.5625V4.6452ZM2.25 4.6452H2.4375V5.0323H2.25V4.6452ZM4.125 4.6452H3.9375V5.0323H4.125V4.6452Z" fill="#B20000"/>
        <path fill-rule="evenodd" clip-rule="evenodd" d="M1.65615 6.71607L1.158 7.44223L0.372253 6.02706L1.40707 4.41019L2.29699 5.81958L3.18692 4.41019L4.22174 6.02706L3.436 7.44223L2.93785 6.71607L3.33115 5.89837L3.18692 5.56612L2.34674 6.92894V7.09032L2.29699 7.00963L2.24725 7.09032V6.92894L1.40707 5.56612L1.26285 5.89837L1.65615 6.71607Z" fill="#B20000"/>
        <path fill-rule="evenodd" clip-rule="evenodd" d="M2.25 7.93553H2.4375V8.32261H2.25V7.93553ZM2.25 9.87098H2.4375V10.2581H2.25V9.87098ZM2.25 8.51618H2.0625V8.90326H2.25V9.09683H2.0625V9.48391H2.25V9.29033H2.4375V9.48391H2.625V9.09683H2.4375V8.90326H2.625V8.51618H2.4375V8.90326H2.25V8.51618ZM1.6875 8.90326H1.875V9.29033H1.6875V8.90326ZM3 8.90326H2.8125V9.29033H3V8.90326ZM0.375 8.90326H0.5625V9.29033H0.375V8.90326ZM4.3125 8.90326H4.125V9.29033H4.3125V8.90326Z" fill="#B20000"/>
        <path fill-rule="evenodd" clip-rule="evenodd" d="M0.33316 16.3229L1.42263 17.9573L2.48405 16.3229L1.4226 14.7635L0.33316 16.3229ZM1.41862 15.431L2.02924 16.3281L1.41859 17.2684L0.791842 16.3282L1.41862 15.431ZM1.5 16.4516H1.3125V16.0645H1.5V16.4516Z" fill="#B20000"/>
        <path fill-rule="evenodd" clip-rule="evenodd" d="M0.852795 14.8606L0.33316 14.1175L0.85278 13.4086L1.35905 14.1175L0.852795 14.8606ZM1.09583 14.1049L0.861697 13.7871L0.624749 14.1239L0.861067 14.4727L1.09583 14.1049Z" fill="#B20000"/>
        <path fill-rule="evenodd" clip-rule="evenodd" d="M1.9778 14.8606L1.45816 14.1175L1.97778 13.4086L2.48406 14.1175L1.9778 14.8606ZM2.22084 14.1049L1.9867 13.7871L1.74975 14.1239L1.98607 14.4727L2.22084 14.1049Z" fill="#B20000"/>
        <path fill-rule="evenodd" clip-rule="evenodd" d="M2.7278 14.8606L2.20816 14.1175L2.72778 13.4086L3.23406 14.1175L2.7278 14.8606ZM2.97084 14.1049L2.7367 13.7871L2.49975 14.1239L2.73607 14.4727L2.97084 14.1049Z" fill="#B20000"/>
        <path fill-rule="evenodd" clip-rule="evenodd" d="M3.85277 14.8606L3.33313 14.1175L3.85275 13.4086L4.35902 14.1175L3.85277 14.8606ZM4.0958 14.1049L3.86167 13.7871L3.62472 14.1239L3.86104 14.4727L4.0958 14.1049Z" fill="#B20000"/>
        <path fill-rule="evenodd" clip-rule="evenodd" d="M2.20816 16.3229L3.29763 17.9573L4.35906 16.3229L3.2976 14.7635L2.20816 16.3229ZM3.29362 15.431L3.90425 16.3281L3.29359 17.2684L2.66685 16.3282L3.29362 15.431ZM3.375 16.4516H3.1875V16.0645H3.375V16.4516Z" fill="#B20000"/>
        <path d="M1.24211 8.69534L0.0277405 10.7347L0.34721 10.9374L1.22755 9.45899L2.30171 11.433L3.40257 9.45434L4.18038 10.7453L4.49882 10.5409L3.38975 8.70007L2.30533 10.6492L1.24211 8.69534Z" fill="#B20000"/>
        <path fill-rule="evenodd" clip-rule="evenodd" d="M0.5625 17.6129H0.764115V17.2259H0.5625V17.6129Z" fill="#B20000"/>
        <path fill-rule="evenodd" clip-rule="evenodd" d="M2.25 18H2.45162V17.6129H2.25V18Z" fill="#B20000"/>
        <path fill-rule="evenodd" clip-rule="evenodd" d="M3.9375 17.6129H4.13911V17.2259H3.9375V17.6129Z" fill="#B20000"/>
        <path fill-rule="evenodd" clip-rule="evenodd" d="M0.5625 15.2903H0.75V14.9033H0.5625V15.2903ZM2.25 15.2903H2.4375V14.9033H2.25V15.2903ZM4.125 15.2903H3.9375V14.9033H4.125V15.2903Z" fill="#B20000"/>
        <path fill-rule="evenodd" clip-rule="evenodd" d="M0.5625 13.3548H0.75V12.9677H0.5625V13.3548ZM2.25 13.3548H2.4375V12.9677H2.25V13.3548ZM4.125 13.3548H3.9375V12.9677H4.125V13.3548Z" fill="#B20000"/>
        <path fill-rule="evenodd" clip-rule="evenodd" d="M1.65615 11.3946L1.158 10.6685L0.372253 12.0836L1.40707 13.7005L2.29699 12.2911L3.18692 13.7005L4.22174 12.0836L3.436 10.6685L2.93785 11.3946L3.33115 12.2123L3.18692 12.5446L2.34674 11.1818V11.0204L2.29699 11.1011L2.24725 11.0204V11.1818L1.40707 12.5446L1.26285 12.2123L1.65615 11.3946Z" fill="#B20000"/>
    </g>
</svg>
