<svg width="24" height="18" viewBox="0 0 24 18" fill="none" xmlns="http://www.w3.org/2000/svg">
    <mask id="mask0_21_7585" style="mask-type:luminance" maskUnits="userSpaceOnUse" x="0" y="0" width="24" height="18">
        <path d="M0 0H24V18H0V0Z" fill="white"/>
    </mask>
    <g mask="url(#mask0_21_7585)">
        <path fill-rule="evenodd" clip-rule="evenodd" d="M0 0H24V18H0V0Z" fill="#F7FCFF"/>
        <path fill-rule="evenodd" clip-rule="evenodd" d="M0 11V12.5H24V11H0Z" fill="#E31D1C"/>
        <path fill-rule="evenodd" clip-rule="evenodd" d="M0 13.75V15.25H24V13.75H0Z" fill="#E31D1C"/>
        <path fill-rule="evenodd" clip-rule="evenodd" d="M0 5.49994V6.99994H24V5.49994H0Z" fill="#E31D1C"/>
        <path fill-rule="evenodd" clip-rule="evenodd" d="M0 16.5V18H24V16.5H0Z" fill="#E31D1C"/>
        <path fill-rule="evenodd" clip-rule="evenodd" d="M0 8.25V9.75H24V8.25H0Z" fill="#E31D1C"/>
        <path fill-rule="evenodd" clip-rule="evenodd" d="M0 0V1.5H24V0H0Z" fill="#E31D1C"/>
        <path fill-rule="evenodd" clip-rule="evenodd" d="M0 2.75006V4.25006H24V2.75006H0Z" fill="#E31D1C"/>
        <path d="M0 0H15V9.75H0V0Z" fill="#2E42A5"/>
        <path fill-rule="evenodd" clip-rule="evenodd" d="M1.29148 2.20404L0.747065 2.5857L0.930862 1.90649L0.447327 1.47606H1.07889L1.29071 0.921753L1.53909 1.47606H2.07748L1.65445 1.90649L1.81822 2.5857L1.29148 2.20404ZM4.29148 2.20404L3.74707 2.5857L3.93086 1.90649L3.44733 1.47606H4.07889L4.29071 0.921753L4.53909 1.47606H5.07748L4.65445 1.90649L4.81822 2.5857L4.29148 2.20404ZM6.74707 2.5857L7.29148 2.20404L7.81822 2.5857L7.65443 1.90649L8.0775 1.47606H7.53907L7.29071 0.921753L7.07889 1.47606H6.44733L6.93086 1.90649L6.74707 2.5857ZM10.2915 2.20404L9.74707 2.5857L9.9309 1.90649L9.4473 1.47606H10.0789L10.2907 0.921753L10.5391 1.47606H11.0775L10.6544 1.90649L10.8182 2.5857L10.2915 2.20404ZM0.747065 5.5857L1.29148 5.20404L1.81822 5.5857L1.65445 4.90649L2.07748 4.47606H1.53909L1.29071 3.92175L1.07889 4.47606H0.447327L0.930862 4.90649L0.747065 5.5857ZM4.29148 5.20404L3.74707 5.5857L3.93086 4.90649L3.44733 4.47606H4.07889L4.29071 3.92175L4.53909 4.47606H5.07748L4.65445 4.90649L4.81822 5.5857L4.29148 5.20404ZM6.74707 5.5857L7.29148 5.20404L7.81822 5.5857L7.65443 4.90649L8.0775 4.47606H7.53907L7.29071 3.92175L7.07889 4.47606H6.44733L6.93086 4.90649L6.74707 5.5857ZM10.2915 5.20404L9.74707 5.5857L9.9309 4.90649L9.4473 4.47606H10.0789L10.2907 3.92175L10.5391 4.47606H11.0775L10.6544 4.90649L10.8182 5.5857L10.2915 5.20404ZM0.747065 8.5857L1.29148 8.20403L1.81822 8.5857L1.65445 7.9065L2.07748 7.47606H1.53909L1.29071 6.92175L1.07889 7.47606H0.447327L0.930862 7.9065L0.747065 8.5857ZM4.29148 8.20403L3.74707 8.5857L3.93086 7.9065L3.44733 7.47606H4.07889L4.29071 6.92175L4.53909 7.47606H5.07748L4.65445 7.9065L4.81822 8.5857L4.29148 8.20403ZM6.74707 8.5857L7.29148 8.20403L7.81822 8.5857L7.65443 7.9065L8.0775 7.47606H7.53907L7.29071 6.92175L7.07889 7.47606H6.44733L6.93086 7.9065L6.74707 8.5857ZM10.2915 8.20403L9.74707 8.5857L9.9309 7.9065L9.4473 7.47606H10.0789L10.2907 6.92175L10.5391 7.47606H11.0775L10.6544 7.9065L10.8182 8.5857L10.2915 8.20403ZM12.7471 2.5857L13.2915 2.20404L13.8182 2.5857L13.6544 1.90649L14.0775 1.47606H13.5391L13.2908 0.921753L13.0789 1.47606H12.4473L12.9309 1.90649L12.7471 2.5857ZM13.2915 5.20404L12.7471 5.5857L12.9309 4.90649L12.4473 4.47606H13.0789L13.2908 3.92175L13.5391 4.47606H14.0775L13.6544 4.90649L13.8182 5.5857L13.2915 5.20404ZM12.7471 8.5857L13.2915 8.20403L13.8182 8.5857L13.6544 7.9065L14.0775 7.47606H13.5391L13.2908 6.92175L13.0789 7.47606H12.4473L12.9309 7.9065L12.7471 8.5857ZM2.79148 3.70404L2.24707 4.0857L2.43086 3.40649L1.94733 2.97606H2.57889L2.79071 2.42175L3.03909 2.97606H3.57748L3.15445 3.40649L3.31822 4.0857L2.79148 3.70404ZM5.24707 4.0857L5.79148 3.70404L6.31822 4.0857L6.15445 3.40649L6.57748 2.97606H6.03909L5.79071 2.42175L5.57889 2.97606H4.94733L5.43086 3.40649L5.24707 4.0857ZM8.7915 3.70404L8.24707 4.0857L8.4309 3.40649L7.9473 2.97606H8.57887L8.79075 2.42175L9.03907 2.97606H9.5775L9.15443 3.40649L9.31822 4.0857L8.7915 3.70404ZM2.24707 7.0857L2.79148 6.70404L3.31822 7.0857L3.15445 6.40649L3.57748 5.97606H3.03909L2.79071 5.42175L2.57889 5.97606H1.94733L2.43086 6.40649L2.24707 7.0857ZM5.79148 6.70404L5.24707 7.0857L5.43086 6.40649L4.94733 5.97606H5.57889L5.79071 5.42175L6.03909 5.97606H6.57748L6.15445 6.40649L6.31822 7.0857L5.79148 6.70404ZM8.24707 7.0857L8.7915 6.70404L9.31822 7.0857L9.15443 6.40649L9.5775 5.97606H9.03907L8.79075 5.42175L8.57887 5.97606H7.9473L8.4309 6.40649L8.24707 7.0857ZM11.7915 3.70404L11.2471 4.0857L11.4309 3.40649L10.9473 2.97606H11.5789L11.7907 2.42175L12.0391 2.97606H12.5775L12.1544 3.40649L12.3182 4.0857L11.7915 3.70404ZM11.2471 7.0857L11.7915 6.70404L12.3182 7.0857L12.1544 6.40649L12.5775 5.97606H12.0391L11.7907 5.42175L11.5789 5.97606H10.9473L11.4309 6.40649L11.2471 7.0857Z" fill="#F7FCFF"/>
    </g>
</svg>
