<svg width="24" height="24" viewBox="0 0 24 24" fill="none" xmlns="http://www.w3.org/2000/svg">
    <path d="M20.4757 3.30275C18.2389 1.1729 15.2337 0 12.0135 0C9.0124 0 6.02075 1.00365 3.80575 2.75355C1.3516 4.6925 0 7.40805 0 10.4C0 13.405 0.77655 15.3435 2.4438 16.5009C3.8438 17.4728 5.8644 17.8875 9.2 17.8875H10.6875C11.0355 17.8879 11.3691 18.0263 11.6151 18.2724C11.8612 18.5184 11.9996 18.852 12 19.2V21.5992C12 22.0235 12.1686 22.4305 12.4686 22.7306C12.7687 23.0306 13.1757 23.1992 13.6 23.1992H13.6016L18.1393 23.1948C18.4961 23.194 18.8425 23.0744 19.1236 22.8548C19.6099 22.4737 20.86 21.3848 21.9637 19.5098C23.315 17.2131 24 14.5518 24 11.6C24 8.4134 22.7484 5.4667 20.4757 3.30275ZM20.5844 18.6985C19.6194 20.3381 18.5512 21.2708 18.1378 21.5948L13.6 21.5992V19.2C13.5991 18.4278 13.292 17.6875 12.746 17.1415C12.2 16.5955 11.4597 16.2884 10.6875 16.2875H9.2C6.2155 16.2875 4.4678 15.9582 3.3562 15.1865C2.14165 14.3434 1.6 12.8672 1.6 10.4C1.6 4.89165 6.895 1.6 12.0135 1.6C17.8378 1.6 22.4 5.99255 22.4 11.6C22.4 14.2626 21.7891 16.6509 20.5844 18.6985Z" fill="currentColor"/>
    <path d="M5.60002 6.39999C5.04623 6.39999 4.50488 6.56421 4.04442 6.87188C3.58397 7.17955 3.22508 7.61685 3.01316 8.12848C2.80123 8.64011 2.74578 9.2031 2.85382 9.74625C2.96186 10.2894 3.22853 10.7883 3.62012 11.1799C4.01171 11.5715 4.51062 11.8382 5.05377 11.9462C5.59691 12.0542 6.1599 11.9988 6.67153 11.7869C7.18317 11.5749 7.62047 11.216 7.92813 10.7556C8.2358 10.2951 8.40002 9.75378 8.40002 9.19999C8.39917 8.45765 8.1039 7.74595 7.57898 7.22103C7.05406 6.69611 6.34237 6.40084 5.60002 6.39999ZM5.60002 10.4C5.36268 10.4 5.13067 10.3296 4.93334 10.1978C4.736 10.0659 4.58219 9.87849 4.49136 9.65921C4.40054 9.43994 4.37677 9.19866 4.42308 8.96589C4.46938 8.73311 4.58367 8.51929 4.75149 8.35147C4.91931 8.18364 5.13313 8.06935 5.36591 8.02305C5.59869 7.97675 5.83997 8.00051 6.05924 8.09134C6.27851 8.18216 6.46593 8.33597 6.59778 8.53331C6.72964 8.73065 6.80002 8.96266 6.80002 9.19999C6.79966 9.51814 6.67312 9.82316 6.44815 10.0481C6.22319 10.2731 5.91817 10.3996 5.60002 10.4Z" fill="currentColor"/>
    <path d="M11.2 2.8C10.6462 2.8 10.1049 2.96422 9.6444 3.27189C9.18394 3.57956 8.82506 4.01686 8.61313 4.52849C8.40121 5.04012 8.34576 5.60311 8.4538 6.14626C8.56183 6.6894 8.82851 7.18831 9.2201 7.5799C9.61168 7.97149 10.1106 8.23816 10.6537 8.3462C11.1969 8.45424 11.7599 8.39879 12.2715 8.18687C12.7831 7.97494 13.2204 7.61606 13.5281 7.1556C13.8358 6.69514 14 6.15379 14 5.6C13.9991 4.85766 13.7039 4.14596 13.179 3.62104C12.654 3.09612 11.9423 2.80085 11.2 2.8ZM11.2 6.8C10.9627 6.8 10.7307 6.72962 10.5333 6.59777C10.336 6.46591 10.1822 6.27849 10.0913 6.05922C10.0005 5.83995 9.97675 5.59867 10.0231 5.36589C10.0694 5.13312 10.1836 4.9193 10.3515 4.75147C10.5193 4.58365 10.7331 4.46936 10.9659 4.42306C11.1987 4.37676 11.4399 4.40052 11.6592 4.49135C11.8785 4.58217 12.0659 4.73598 12.1978 4.93332C12.3296 5.13066 12.4 5.36267 12.4 5.6C12.3996 5.91815 12.2731 6.22317 12.0481 6.44814C11.8232 6.6731 11.5181 6.79965 11.2 6.8Z" fill="currentColor"/>
    <path d="M17.2 5.60001C16.6462 5.60001 16.1049 5.76422 15.6444 6.07189C15.1839 6.37956 14.8251 6.81686 14.6131 7.32849C14.4012 7.84013 14.3458 8.40311 14.4538 8.94626C14.5618 9.48941 14.8285 9.98832 15.2201 10.3799C15.6117 10.7715 16.1106 11.0382 16.6537 11.1462C17.1969 11.2542 17.7599 11.1988 18.2715 10.9869C18.7831 10.7749 19.2204 10.4161 19.5281 9.9556C19.8358 9.49515 20 8.95379 20 8.40001C19.9991 7.65766 19.7039 6.94596 19.179 6.42104C18.654 5.89612 17.9423 5.60085 17.2 5.60001ZM17.2 9.60001C16.9627 9.60001 16.7307 9.52963 16.5333 9.39777C16.336 9.26591 16.1822 9.0785 16.0913 8.85923C16.0005 8.63995 15.9768 8.39867 16.0231 8.1659C16.0694 7.93312 16.1836 7.7193 16.3515 7.55148C16.5193 7.38365 16.7331 7.26937 16.9659 7.22306C17.1987 7.17676 17.4399 7.20053 17.6592 7.29135C17.8785 7.38218 18.0659 7.53598 18.1978 7.73332C18.3296 7.93066 18.4 8.16267 18.4 8.40001C18.3996 8.71816 18.2731 9.02317 18.0481 9.24814C17.8232 9.47311 17.5181 9.59965 17.2 9.60001Z" fill="currentColor"/>
    <path d="M18 12.4C17.4462 12.4 16.9048 12.5642 16.4444 12.8719C15.9839 13.1796 15.625 13.6169 15.4131 14.1285C15.2012 14.6401 15.1457 15.2031 15.2538 15.7463C15.3618 16.2894 15.6285 16.7883 16.0201 17.1799C16.4117 17.5715 16.9106 17.8382 17.4537 17.9462C17.9969 18.0542 18.5599 17.9988 19.0715 17.7869C19.5831 17.5749 20.0204 17.2161 20.3281 16.7556C20.6358 16.2951 20.8 15.7538 20.8 15.2C20.7991 14.4577 20.5039 13.746 19.9789 13.221C19.454 12.6961 18.7423 12.4009 18 12.4ZM18 16.4C17.7626 16.4 17.5306 16.3296 17.3333 16.1978C17.136 16.0659 16.9822 15.8785 16.8913 15.6592C16.8005 15.44 16.7767 15.1987 16.823 14.9659C16.8693 14.7331 16.9836 14.5193 17.1515 14.3515C17.3193 14.1837 17.5331 14.0694 17.7659 14.0231C17.9987 13.9768 18.2399 14.0005 18.4592 14.0914C18.6785 14.1822 18.8659 14.336 18.9977 14.5333C19.1296 14.7307 19.2 14.9627 19.2 15.2C19.1996 15.5182 19.0731 15.8232 18.8481 16.0481C18.6232 16.2731 18.3181 16.3997 18 16.4Z" fill="currentColor"/>
</svg>
