<svg width="22" height="24" viewBox="0 0 22 24" fill="none" xmlns="http://www.w3.org/2000/svg">
    <path d="M12 24C15.6917 24 19.0773 22.3217 21.3208 19.5574C22.646 17.9247 21.2009 15.5392 19.1529 15.9293C15.2928 16.6644 11.7339 13.7136 11.7339 9.79837C11.7339 7.5285 12.9555 5.47219 14.8949 4.36856C16.711 3.33497 16.2542 0.581625 14.1907 0.200484C13.4681 0.0672256 12.7348 0.000119827 12 0C5.37375 0 0 5.3707 0 12C0 18.6263 5.37075 24 12 24ZM12 2.25C12.6087 2.25 13.2042 2.3063 13.782 2.41303C11.2151 3.8738 9.48389 6.63375 9.48389 9.79837C9.48389 15.135 14.3421 19.1359 19.5738 18.1395C17.7862 20.3421 15.0577 21.75 12 21.75C6.61523 21.75 2.25 17.3848 2.25 12C2.25 6.61523 6.61523 2.25 12 2.25Z" fill="currentColor"/>
</svg>
