<svg viewBox="0 0 100 50" xmlns="http://www.w3.org/2000/svg">
<path d="M100.885 25.7107C100.885 32.2653 70.6687 35.3202 50.7669 35.3202C34.205 35.3202 0.884766 32.6906 0.884766 25.7107C0.884766 19.2336 25.541 17.0487 25.8553 17.0294C26.1893 16.9907 26.2875 17.0874 26.1893 17.3387C26.1107 17.5901 25.9732 17.9768 25.9535 18.0735C25.9142 18.2281 25.816 18.3055 25.6588 18.3248C22.7512 18.6342 4.26394 20.8964 4.26394 25.7107C4.26394 30.6218 25.4034 34.0827 50.7669 34.0827C76.1303 34.0827 97.1913 30.7185 97.1913 25.7107C97.1716 20.529 80.0793 18.8662 76.1107 18.2475C76.0518 18.2475 76.0125 18.1895 75.9928 18.1315C75.9339 17.9575 75.816 17.5901 75.7374 17.3194C75.6981 17.2034 75.7964 17.1067 75.9142 17.1067C79.1166 17.4354 100.885 19.5816 100.885 25.7107ZM25.4231 19.9876L25.6392 19.0209C25.6588 18.9049 25.5606 18.7889 25.4427 18.8082C23.1441 19.0789 5.61954 21.1864 5.61954 25.7107C5.61954 29.481 25.3838 33.638 50.7472 33.638C77.1913 33.638 95.816 29.4617 95.816 25.7107C95.816 20.9737 78.8612 19.0982 76.425 18.8082C76.3072 18.7889 76.2089 18.9049 76.2286 19.0209L76.425 20.007C76.4447 20.0843 76.5036 20.1423 76.5822 20.1423C79.372 20.5097 90.9044 22.2111 90.9044 25.7107C90.9044 27.4702 81.651 32.4973 50.7472 32.4973C19.8435 32.4973 10.5508 27.6636 10.5508 25.7107C10.5508 21.9791 23.8317 20.3163 25.2659 20.1423C25.3445 20.123 25.4034 20.065 25.4231 19.9876ZM73.9692 46.2831C73.871 46.1864 73.8514 46.0897 73.8514 45.9544C73.871 45.761 73.871 45.3163 73.871 45.297C73.871 45.1036 73.7924 45.1036 73.6549 45.1423C73.5174 45.2003 73.2423 45.297 73.0852 45.3743C72.928 45.4323 72.7708 45.4517 72.594 45.3937C72.4172 45.3163 72.26 45.2776 72.0832 45.2196C71.8278 45.1423 71.8081 45.2196 71.8278 45.3937C71.8474 45.5677 71.8671 45.7997 71.8867 45.9544C71.9064 46.109 71.8671 46.2444 71.7689 46.3604C71.6313 46.5344 71.4742 46.7084 71.3563 46.8824C71.2581 47.0178 71.258 47.0564 71.4349 47.1145C71.651 47.1725 71.9653 47.2305 72.1225 47.2691C72.2797 47.3078 72.3582 47.3658 72.4368 47.4818C72.5547 47.6752 72.6922 47.8685 72.8298 48.0619C72.928 48.1972 72.9673 48.1972 73.0459 48.0619C73.1637 47.8685 73.3013 47.6752 73.3995 47.4625C73.4584 47.3465 73.5567 47.2691 73.6942 47.2305C73.9103 47.1725 74.1068 47.1145 74.3032 47.0564C74.4997 46.9984 74.5193 46.9404 74.4015 46.7858C74.2639 46.6117 74.1264 46.4377 73.9692 46.2831ZM82.4172 7.53595C82.7315 7.53595 82.9673 7.2846 82.9673 6.99458C82.9673 6.70455 82.7119 6.4532 82.4172 6.4532C82.1225 6.4532 81.8671 6.70455 81.8671 6.99458C81.8671 7.2846 82.1225 7.53595 82.4172 7.53595ZM76.1303 13.8971C76.5429 13.9165 77.093 13.9165 77.3681 13.9165C77.6431 13.9165 77.8199 13.9938 77.9771 14.1678C78.2718 14.4578 78.5665 14.7479 78.8612 15.0186C79.0773 15.2119 79.1362 15.1926 79.2345 14.9412C79.3916 14.5545 79.5292 14.1872 79.647 13.7811C79.7256 13.5491 79.8435 13.3751 80.0793 13.2784C80.4133 13.1237 80.7472 12.9497 81.0812 12.7564C81.4152 12.5824 81.4152 12.4857 81.1402 12.273C80.8455 12.0216 80.5311 11.7703 80.2168 11.5576C80.0203 11.4223 79.9221 11.2483 79.9025 11.0356C79.8435 10.6875 79.706 9.91414 79.706 9.89481C79.6274 9.56612 79.4899 9.58545 79.2934 9.72079C79.0773 9.85614 78.6451 10.1462 78.4093 10.3202C78.1539 10.4942 77.8789 10.5715 77.5645 10.5135C77.2502 10.4555 76.9162 10.4169 76.6019 10.3975C76.15 10.3395 76.1303 10.4942 76.2286 10.8035C76.3268 11.1129 76.4447 11.4803 76.5233 11.7703C76.6215 12.041 76.6019 12.2923 76.4643 12.5244C76.2875 12.8724 76.0911 13.2204 75.9142 13.5684C75.7767 13.8005 75.816 13.8778 76.1303 13.8971ZM68.1932 3.5723C68.5076 3.5723 68.7433 3.32095 68.7433 3.03093C68.7433 2.7409 68.4879 2.48955 68.1932 2.48955C67.8789 2.48955 67.6431 2.7409 67.6431 3.03093C67.6431 3.32095 67.8789 3.5723 68.1932 3.5723ZM70.8848 5.85382C71.8867 6.25985 71.985 6.8399 72.0832 8.09666C72.1028 8.34802 72.3386 8.36735 72.3975 8.116C72.7315 6.8979 72.9673 6.35653 73.9692 6.12451C74.1657 6.08584 74.205 5.83448 74.0282 5.75714C73.0852 5.35111 72.928 4.86774 72.8298 3.61097C72.8101 3.35962 72.5744 3.34028 72.5154 3.59164C72.1814 4.80974 72.0243 5.2351 70.9437 5.48646C70.7276 5.52513 70.6883 5.77648 70.8848 5.85382ZM85.3838 14.4578C85.5999 14.5352 85.9142 14.6125 86.0518 14.6512C86.1893 14.6899 86.2875 14.7672 86.3465 14.8832C86.4643 15.0766 86.5822 15.2892 86.7001 15.4826C86.7787 15.6179 86.818 15.6179 86.9162 15.5019C87.0537 15.3279 87.1912 15.1346 87.3091 14.9412C87.3877 14.8252 87.4859 14.7479 87.6235 14.7285C87.8396 14.6899 88.036 14.6512 88.2522 14.5932C88.4683 14.5352 88.4683 14.4965 88.37 14.3418C88.2522 14.1678 88.1146 13.9745 87.9771 13.8005C87.8985 13.7038 87.8592 13.5878 87.8789 13.4718C87.8985 13.2784 87.9575 12.8337 87.9575 12.8144C87.9575 12.621 87.8985 12.621 87.761 12.6597C87.6235 12.6984 87.3484 12.795 87.1913 12.853C87.0341 12.9111 86.8573 12.911 86.7001 12.8337C86.5429 12.7564 86.3661 12.6984 86.1893 12.621C85.9535 12.5244 85.9142 12.6017 85.9142 12.7757C85.9142 12.9691 85.9142 13.1817 85.9339 13.3364C85.9339 13.4911 85.8946 13.6264 85.7767 13.7424C85.6195 13.8971 85.4624 14.0518 85.3249 14.2258C85.207 14.3418 85.207 14.3998 85.3838 14.4578ZM85.5803 45.0456C84.4604 44.5622 84.2639 43.9822 84.1461 42.4741C84.1264 42.1841 83.8317 42.1454 83.7531 42.4354C83.3406 43.9049 83.1637 44.4076 81.8867 44.6976C81.6313 44.7556 81.592 45.065 81.8278 45.1616C83.0262 45.645 83.1245 46.3217 83.262 47.8492C83.2816 48.1392 83.5763 48.1779 83.6549 47.8878C84.0675 46.4184 84.3229 45.7997 85.541 45.4903C85.7374 45.4323 85.7964 45.1423 85.5803 45.0456ZM80.708 37.9304C80.4722 37.8724 79.9614 37.7564 79.6667 37.6984C79.372 37.6404 79.1166 37.4857 78.9398 37.215C78.763 36.9443 78.5665 36.693 78.37 36.4416C78.095 36.0742 77.9771 36.1516 77.8199 36.4416C77.6628 36.7316 77.4467 37.0603 77.3091 37.3117C77.1716 37.563 76.9751 37.7177 76.7001 37.795C76.3268 37.8917 75.9339 37.9884 75.5606 38.1044C75.2659 38.2011 75.2463 38.2784 75.4427 38.5104C75.7178 38.8198 76.0911 39.2258 76.2679 39.4192C76.4447 39.6125 76.5036 39.7865 76.5036 40.0379C76.484 40.4439 76.4643 40.85 76.484 41.256C76.484 41.546 76.5429 41.5847 76.7983 41.488C77.1912 41.3333 77.5645 41.1786 77.9378 41.0046C78.1736 40.8886 78.37 40.8693 78.6058 40.966C78.9594 41.1013 79.3131 41.2173 79.6667 41.3333C80.0203 41.4493 80.0989 41.3913 80.0793 41.0433C80.0596 40.6566 80.04 40.2699 79.981 39.8832C79.9614 39.6512 80.0203 39.4772 80.1579 39.3032C80.374 39.0325 80.8455 38.4138 80.8651 38.3751C81.0616 38.0657 80.9437 37.9884 80.708 37.9304ZM78.5861 46.0704C78.2718 46.0704 78.036 46.3217 78.036 46.6117C78.036 46.9018 78.2914 47.1531 78.5861 47.1531C78.8808 47.1531 79.1362 46.9018 79.1362 46.6117C79.1362 46.3217 78.9005 46.0704 78.5861 46.0704ZM88.4879 36.4416L87.5056 36.3643L87.152 35.0302C87.1323 34.9528 87.0144 34.9335 86.9751 35.0108L86.3858 36.2676L85.3641 36.1516C85.2856 36.1516 85.2463 36.2096 85.2659 36.2869L85.6981 37.0797L85.1087 37.8337C85.0694 37.8917 85.1087 37.9691 85.1677 37.9691L86.1893 38.0464L86.5036 39.3418C86.5233 39.4192 86.6412 39.4385 86.6804 39.3612L87.3091 38.1431L88.2914 38.2397C88.37 38.2397 88.4093 38.1624 88.37 38.1044L87.8592 37.273L88.5076 36.5769C88.5861 36.5383 88.5468 36.4609 88.4879 36.4416ZM92.594 33.7347C92.2797 33.7347 92.0439 33.9861 92.0439 34.2761C92.0439 34.5661 92.2993 34.8175 92.594 34.8175C92.9083 34.8175 93.1441 34.5661 93.1441 34.2761C93.1441 33.9861 92.9083 33.7347 92.594 33.7347ZM15.6588 36.3449C15.5213 36.1709 15.3838 35.9969 15.2266 35.8422C15.1284 35.7455 15.1087 35.6489 15.1087 35.5135C15.1284 35.3202 15.1284 34.8755 15.1284 34.8561C15.1284 34.6628 15.0498 34.6628 14.9123 34.7015C14.7747 34.7595 14.4997 34.8561 14.3425 34.9335C14.1854 34.9915 14.0282 35.0108 13.8514 34.9528C13.6745 34.8755 13.5174 34.8368 13.3406 34.7788C13.0852 34.7015 13.0655 34.7788 13.0852 34.9528C13.1048 35.1268 13.1245 35.3588 13.1441 35.5135C13.1637 35.6682 13.1245 35.8035 13.0262 35.9196C12.8887 36.0936 12.7315 36.2676 12.6136 36.4416C12.5154 36.5769 12.5154 36.6156 12.6922 36.6736C12.9083 36.7316 13.2227 36.7896 13.3799 36.8283C13.537 36.867 13.6156 36.925 13.6942 37.041C13.8121 37.2343 13.9496 37.4277 14.0871 37.621C14.1854 37.7564 14.2246 37.7564 14.3032 37.621C14.4211 37.4277 14.5586 37.2343 14.6569 37.0216C14.7158 36.9056 14.814 36.8283 14.9516 36.7896C15.1677 36.7316 15.3641 36.6736 15.5606 36.6156C15.7767 36.5576 15.7964 36.4996 15.6588 36.3449ZM22.6529 22.6752C22.9673 22.6752 23.203 22.4238 23.203 22.1338C23.203 21.8438 22.9476 21.5924 22.6529 21.5924C22.3386 21.5924 22.1028 21.8438 22.1028 22.1338C22.1028 22.4238 22.3386 22.6752 22.6529 22.6752ZM9.43093 17.1454C9.74528 17.1454 9.98103 16.894 9.98103 16.604C9.98103 16.2947 9.72563 16.0626 9.43093 16.0626C9.11659 16.0626 8.88084 16.314 8.88084 16.604C8.86119 16.894 9.11659 17.1454 9.43093 17.1454ZM79.706 22.8685C79.706 22.5592 79.4506 22.3271 79.1559 22.3271C78.8612 22.3271 78.6058 22.5785 78.6058 22.8685C78.6058 23.1585 78.8612 23.4099 79.1559 23.4099C79.4506 23.4099 79.706 23.1779 79.706 22.8685ZM10.9634 39.2258C10.649 39.2258 10.4133 39.4772 10.4133 39.7672C10.4133 40.0766 10.6687 40.3086 10.9634 40.3086C11.258 40.3086 11.5134 40.0572 11.5134 39.7672C11.5134 39.4772 11.258 39.2258 10.9634 39.2258ZM17.3288 23.0232C17.2895 22.8298 17.093 22.8492 17.0734 23.0425C16.9555 24.0673 16.8769 24.4153 16.0518 24.744C15.8946 24.802 15.8946 25.0147 16.0518 25.0534C16.8966 25.266 17.0341 25.7107 17.2698 26.7162C17.3091 26.9095 17.5056 26.8902 17.5252 26.6968C17.6431 25.6721 17.761 25.2274 18.5468 24.918C18.704 24.86 18.704 24.6473 18.5468 24.6087C17.761 24.3766 17.5645 24.0093 17.3288 23.0232ZM82.0243 27.9149C82.0243 28.1276 82.2404 28.1469 82.2993 27.9536C82.6333 26.9095 82.8494 26.4648 83.7138 26.2715C83.8907 26.2328 83.93 26.0201 83.7728 25.9428C82.9673 25.5561 82.8691 25.15 82.8101 24.0479C82.8101 23.8353 82.594 23.8159 82.5351 24.0093C82.2011 25.0534 82.0635 25.4207 81.1205 25.5947C80.9437 25.6334 80.9044 25.8461 81.0616 25.9234C81.926 26.3295 81.985 26.8322 82.0243 27.9149ZM12.1814 15.1539L13.203 15.1346L13.6549 16.3913C13.6745 16.4687 13.7924 16.4687 13.8317 16.3913L14.3425 15.1152L15.3445 15.1346C15.4231 15.1346 15.4624 15.0572 15.4231 14.9992L14.8533 14.2065L15.4231 13.4524C15.4624 13.3944 15.4231 13.3171 15.3445 13.3171L14.3622 13.3364L13.8907 12.041C13.871 11.9636 13.7531 11.9636 13.7138 12.041L13.2423 13.3364L12.2207 13.3171C12.1421 13.3171 12.1028 13.3944 12.1421 13.4524L12.6529 14.2065L12.1028 15.0186C12.0635 15.0766 12.1028 15.1539 12.1814 15.1539ZM19.2345 12.4083C19.5881 12.621 20.0793 12.8724 20.315 12.9884C20.5508 13.1044 20.6687 13.2591 20.7472 13.4911C20.8651 13.8778 20.983 14.2645 21.1205 14.6512C21.2188 14.9219 21.2777 14.9412 21.4938 14.7672C21.8081 14.4965 22.1028 14.2258 22.3975 13.9358C22.5744 13.7618 22.7708 13.6651 23.0066 13.6844C23.3799 13.7038 23.7531 13.6844 24.1264 13.6844C24.4997 13.6844 24.5586 13.6071 24.4211 13.2784C24.2639 12.911 24.1068 12.563 23.9496 12.215C23.8514 12.0023 23.8317 11.809 23.9103 11.5963C24.0282 11.2676 24.2639 10.5329 24.2836 10.4942C24.3622 10.1655 24.2443 10.1268 23.9889 10.1462C23.7335 10.1655 23.2227 10.2235 22.928 10.2622C22.6333 10.3008 22.3386 10.2428 22.0832 10.0495C21.8278 9.85614 21.5527 9.68212 21.2973 9.50811C20.9241 9.25676 20.8258 9.37277 20.7669 9.70146C20.7079 10.0302 20.6294 10.3975 20.5704 10.6875C20.5115 10.9776 20.3936 11.1709 20.1579 11.3256C19.8435 11.5576 19.5095 11.7703 19.1952 12.0023C18.9594 12.1763 18.9594 12.2537 19.2345 12.4083ZM25.7374 5.73781C26.5822 5.95049 26.7394 6.3952 26.9751 7.38127C27.0144 7.57462 27.2109 7.55529 27.2305 7.36194C27.3484 6.33719 27.4663 5.89249 28.2325 5.58313C28.3897 5.52513 28.3897 5.31244 28.2325 5.27377C27.427 5.06109 27.2502 4.69373 27.0144 3.70765C26.9751 3.5143 26.7787 3.53363 26.759 3.72698C26.6412 4.75173 26.5822 5.09976 25.7374 5.42845C25.5802 5.48646 25.5802 5.69914 25.7374 5.73781ZM20.6883 27.5862L21.7099 27.5669L22.1618 28.8237C22.1814 28.901 22.2993 28.901 22.3386 28.8237L22.8494 27.5476L23.8514 27.5669C23.93 27.5669 23.9692 27.4895 23.93 27.4315L23.3602 26.6388L23.93 25.8848C23.9692 25.8268 23.93 25.7494 23.8514 25.7494L22.869 25.7687L22.3975 24.4733C22.3779 24.396 22.26 24.396 22.2207 24.4733L21.7492 25.7687L20.7276 25.7494C20.649 25.7494 20.6097 25.8268 20.649 25.8848L21.1598 26.6388L20.649 27.4315C20.5704 27.5089 20.6097 27.5862 20.6883 27.5862ZM27.8003 43.4795C27.4859 43.4795 27.2502 43.7308 27.2502 44.0209C27.2502 44.3109 27.5056 44.5622 27.8003 44.5622C28.1146 44.5622 28.3504 44.3109 28.3504 44.0209C28.3504 43.7308 28.095 43.4795 27.8003 43.4795ZM25.3052 38.4911C24.2639 38.2011 24.0478 37.737 23.7531 36.4223C23.6942 36.1709 23.4388 36.1902 23.4191 36.4416C23.2423 37.7564 23.1637 38.2204 22.0832 38.6264C21.8671 38.7038 21.8671 38.9745 22.0832 39.0325C23.1834 39.3225 23.3602 39.8832 23.6549 41.198C23.7138 41.4493 23.9692 41.43 23.9889 41.1786C24.1657 39.8639 24.3229 39.2838 25.3248 38.8778C25.5017 38.8198 25.5213 38.5491 25.3052 38.4911ZM19.2738 41.546C18.1736 41.2947 17.9182 40.7919 17.5645 39.4578C17.4859 39.2065 17.2305 39.2258 17.2109 39.4965C17.093 40.8886 17.0144 41.3527 15.8946 41.836C15.6785 41.9327 15.6785 42.2034 15.9142 42.2614C17.0734 42.5128 17.2895 43.1121 17.6431 44.4462C17.7217 44.6976 17.9771 44.6783 17.9968 44.4076C18.1146 43.0155 18.2522 42.4161 19.2934 41.952C19.4899 41.8747 19.4899 41.604 19.2738 41.546ZM60.6883 7.01391C61.0419 7.03325 61.317 6.74322 61.2973 6.37586C61.2973 6.04717 61.0419 5.75714 60.7079 5.75714C60.374 5.73781 60.0793 6.04717 60.0989 6.3952C60.1186 6.74322 60.3543 6.99458 60.6883 7.01391ZM74.3818 34.7981C74.3818 36.2676 66.7787 50.6914 50.7669 50.6914C34.7551 50.6914 27.4859 36.0742 27.4859 34.7788C32.4172 35.2622 42.2404 35.9582 50.7669 35.9582C58.9987 35.9776 69.1755 35.6875 74.3818 34.7981ZM31.8867 37.6984L31.5527 37.2343L31.8867 36.809C31.9064 36.7703 31.8867 36.7316 31.8474 36.7316L31.2777 36.751L31.0026 35.9969C30.983 35.9582 30.9241 35.9582 30.9044 35.9969L30.6294 36.751L30.04 36.7316C30.0007 36.7316 29.981 36.7703 30.0007 36.809L30.2954 37.2537L30.0007 37.7177C29.981 37.7564 30.0007 37.795 30.04 37.795H30.6294L30.8848 38.5298C30.9044 38.5684 30.9634 38.5684 30.983 38.5298L31.2777 37.795H31.8474C31.8867 37.7757 31.9064 37.737 31.8867 37.6984ZM33.3602 38.8971C33.3799 38.6651 33.1834 38.4524 32.9673 38.4524C32.7512 38.4524 32.5351 38.6651 32.5351 38.8778C32.5351 39.0905 32.7119 39.2645 32.9476 39.2645C33.1637 39.2645 33.3406 39.1098 33.3602 38.8971ZM39.6078 43.6922C40.4133 42.2034 39.981 41.3527 39.372 40.7146C38.7237 40.0186 37.3288 39.3032 37.6628 38.7811C38.036 38.1817 39.038 38.9358 39.5488 39.3612C39.706 39.4965 39.9614 39.3998 39.981 39.2065C40.0793 38.5878 40.0793 37.8724 40.1186 37.3117C40.1579 36.751 40.2364 36.3256 39.2148 36.2869C39.1755 36.2869 37.427 36.2483 36.5822 36.1902C36.1107 36.1516 34.8533 35.9776 34.4211 37.2537C34.0871 38.2591 34.8533 39.1098 35.5213 39.5739C35.8749 39.8252 37.761 40.8113 37.3091 41.3913C36.8376 41.9714 35.7178 40.7533 35.3838 40.4053C34.873 39.8639 34.539 39.8639 34.1264 40.4633C33.871 40.8306 33.6353 41.2173 33.3995 41.604C33.1245 42.0487 33.1245 42.1841 33.4977 42.5514C33.9103 42.9575 35.3641 44.4269 36.3661 44.9103C37.3681 45.3937 38.6254 45.5097 39.6078 43.6922ZM43.1637 48.0039C43.3602 46.2444 43.8514 41.198 43.9103 40.85C44.0085 40.3086 44.1854 40.1732 44.7355 40.1926C45.1284 40.2119 45.5017 40.2312 45.8946 40.2699C46.3465 40.3086 46.6019 40.1732 46.759 39.7672C46.8376 39.5158 47.1323 37.8917 47.1716 37.331C47.2109 36.925 47.0734 36.809 46.6412 36.7896C46.3268 36.7703 43.6353 36.4996 41.4938 36.4996C40.983 36.4996 40.7669 36.6736 40.708 37.0797C40.5901 37.8337 40.4918 38.5878 40.3936 39.3225C40.3543 39.7285 40.4329 39.8445 40.8651 39.9025C41.1205 39.9412 41.3956 39.9219 41.651 39.9412C41.985 39.9605 42.1028 40.0379 41.9064 40.7533C41.7099 41.4687 39.1362 45.2583 38.8219 45.703C38.5076 46.1477 38.5272 46.2637 38.9791 46.5731C39.7846 47.1145 41.5724 47.9845 42.5154 48.3906C42.8101 48.4872 43.1441 48.3132 43.1637 48.0039ZM48.6254 41.14C48.6254 40.7339 48.5665 40.6566 48.1343 40.6566C47.1913 40.6179 45.1284 40.5986 45.0302 40.6179C44.6765 40.6373 44.4801 40.8113 44.4408 41.1593C44.4015 41.4107 43.7335 47.6558 43.7335 48.1005C43.7138 48.6226 43.93 48.8159 44.3229 48.9513C44.7158 49.0673 46.7197 49.6667 47.8396 49.6667C48.4093 49.6667 48.5665 49.628 48.5665 49.1253C48.5665 48.8546 48.5665 47.7718 48.5665 47.1338C48.5665 46.9404 48.4093 46.7858 48.2129 46.7664C47.761 46.7471 47.093 46.7084 46.818 46.6891C46.5822 46.6891 46.3661 46.4957 46.4054 46.0317C46.4447 45.5677 46.6215 45.5677 46.8573 45.587C47.1716 45.6063 47.5842 45.5677 47.6824 45.3743C47.761 45.2196 47.8003 44.7943 47.8199 44.5042C47.8199 44.3302 47.7021 44.1562 47.5056 44.1369L46.8573 44.0595C46.6608 44.0402 46.5233 43.8662 46.5429 43.6728L46.5822 43.3248C46.6019 43.1315 46.7787 42.9961 46.9751 43.0155C47.427 43.0541 48.0753 43.1121 48.1932 43.1121C48.429 43.0928 48.5861 42.9961 48.5861 42.7254C48.6058 42.1841 48.6451 41.662 48.6254 41.14ZM48.7433 38.9551L48.2718 38.8585L48.095 38.4331C48.0753 38.3944 48.036 38.3944 48.0164 38.4331L47.7806 38.8391L47.3091 38.8778C47.2698 38.8778 47.2502 38.9358 47.2698 38.9551L47.5842 39.3032L47.4663 39.7672C47.4663 39.8059 47.5056 39.8445 47.5252 39.8252L47.9575 39.6319L48.37 39.8832C48.4093 39.9025 48.4486 39.8832 48.4486 39.8445L48.3897 39.3805L48.7433 39.0711C48.8023 39.0131 48.7826 38.9745 48.7433 38.9551ZM53.6549 45.6837C53.6156 45.3163 53.5567 45.2776 53.1834 45.2776C52.928 45.2776 52.5547 45.3163 52.2993 45.3163C51.985 45.3163 51.8671 45.239 51.9064 44.8716C51.9457 44.5042 52.7708 38.2784 52.8494 37.273C52.8887 36.809 52.7708 36.7123 52.319 36.6736C51.5527 36.6156 50.2168 36.5576 49.5292 36.6156C48.9987 36.6543 48.9398 36.8283 48.9987 37.2923C49.2934 39.4578 48.9201 47.3851 49.1362 49.4346C49.1559 49.6667 49.3524 49.86 49.6078 49.8793C50.5901 49.9373 52.2797 49.918 53.1441 49.744C53.3602 49.7053 53.5174 49.512 53.537 49.2993C53.596 48.2359 53.6942 46.0317 53.6549 45.6837ZM58.1932 44.5429C58.1736 44.3302 58.0557 44.2336 57.8396 44.2722C57.7217 44.2916 57.152 44.3689 56.818 44.4269C56.6804 44.4462 56.5822 44.3496 56.5822 44.2142C56.7001 42.7641 57.9378 37.4663 57.9378 37.1957C57.9575 36.8283 57.8789 36.751 57.4859 36.693C57.2109 36.6543 54.7944 36.5963 53.8907 36.6156C53.5567 36.6156 53.3602 36.7703 53.4191 37.1763C53.7138 38.9165 54.3229 42.2421 54.2639 44.5622C54.2443 45.2196 54.0871 47.6558 54.1068 49.1059C54.1068 49.4153 54.3818 49.6473 54.6962 49.5893C55.6392 49.454 56.8769 49.0673 57.6038 48.7966C57.9575 48.6612 58.0753 48.4099 58.0753 48.0619C58.1343 46.9791 58.1932 44.6396 58.1932 44.5429ZM64.6372 44.8909C64.5193 44.5622 63.0262 39.3418 62.8691 37.3503C62.8101 36.5769 62.5154 36.4996 62.2404 36.4996C61.3563 36.4803 60.4722 36.4803 59.5881 36.5189C59.1952 36.5383 58.9987 36.6736 58.9201 37.1377C58.7237 38.4911 58.7433 41.5073 58.7237 43.1315C58.704 44.2722 58.6451 46.8824 58.6451 47.9845C58.6451 48.2359 58.9005 48.4099 59.1559 48.3326C59.7649 48.1199 60.8258 47.7138 61.2973 47.3851C61.6117 47.1725 61.6313 47.0758 61.5331 46.6891C61.3563 46.0124 60.4722 43.1701 61.4545 43.0541C62.2011 42.9575 62.2797 45.7223 62.3386 46.225C62.3582 46.4571 62.4958 46.5924 62.7315 46.5151C63.3602 46.3024 63.9889 46.051 64.4997 45.587C64.6962 45.4323 64.7551 45.181 64.6372 44.8909ZM70.1971 39.7285C70.0596 39.7092 69.4113 39.7092 68.7826 39.5932C68.1343 39.4772 68.1932 39.1485 68.5665 38.8971C69.3916 38.3364 69.1755 36.9636 68.2914 36.4996C67.2502 35.9582 64.4015 36.3836 63.93 36.4416C63.4584 36.4996 63.3013 36.6543 63.3799 37.157C63.7335 39.4385 64.6176 43.6342 65.1087 44.5622C65.2659 44.8329 65.4034 44.9489 65.6785 44.7749C66.2286 44.4076 66.759 44.0015 67.2698 43.5762C67.4859 43.4022 67.4663 43.1508 67.2895 42.9188C67.0734 42.6481 65.8357 41.2947 66.5036 40.8306C67.152 40.3859 67.7021 41.7394 67.8199 41.9907C68.0164 42.4354 68.2129 42.4934 68.5665 42.1647C69.038 41.72 70.0989 40.8693 70.4329 40.1152C70.5115 39.8639 70.4133 39.7672 70.1971 39.7285ZM71.8867 36.8863L71.2777 36.6156L71.1598 35.9776C71.1402 35.9196 71.0812 35.9002 71.0419 35.9389L70.5901 36.4223L69.9417 36.3449C69.8828 36.3449 69.8435 36.4029 69.8828 36.4416L70.2168 37.0023L69.9221 37.5824C69.9024 37.6404 69.9417 37.6984 70.0007 37.679L70.649 37.5437L71.1205 37.9884C71.1598 38.0271 71.2384 38.0077 71.2384 37.9497L71.317 37.3117L71.9064 37.0023C71.9457 36.983 71.9457 36.9056 71.8867 36.8863ZM50.7472 0.691406C70.2364 0.691406 78.4093 16.9714 76.0321 30.1771C76.0321 30.1771 66.4447 31.8012 51.1991 31.8012C35.9535 31.8012 25.9535 30.1771 25.9535 30.1771C23.0459 19.0789 31.2581 0.691406 50.7472 0.691406ZM27.7806 26.2908C27.8003 26.0588 27.6038 25.8461 27.3877 25.8461C27.1716 25.8461 26.9555 26.0588 26.9555 26.2715C26.9555 26.4841 27.1323 26.6582 27.3681 26.6582C27.5842 26.6775 27.761 26.5228 27.7806 26.2908ZM41.5527 25.9428C41.1991 24.7053 40.1971 23.2165 38.1343 23.2165C36.759 23.2165 34.6372 24.0866 34.0085 26.5035C33.537 28.2436 34.873 30.9505 38.2325 30.7765C41.5527 30.6025 41.8867 27.1609 41.5527 25.9428ZM36.8769 22.8685C37.1127 22.8685 37.2698 22.7138 37.2895 22.5011C37.3091 22.2691 37.1127 22.0564 36.8966 22.0564C36.6804 22.0564 36.4643 22.2691 36.4643 22.4818C36.4643 22.6945 36.6412 22.8685 36.8769 22.8685ZM38.8415 21.3217L39.2738 20.9544C39.3131 20.9157 39.2934 20.8577 39.2541 20.8577L38.6844 20.7417L38.4683 20.2196C38.4486 20.181 38.3897 20.1616 38.37 20.2196L38.0753 20.7223L37.5056 20.761C37.4467 20.761 37.427 20.819 37.4663 20.8577L37.8592 21.2831L37.7217 21.8438C37.7021 21.8824 37.761 21.9404 37.8003 21.9018L38.3307 21.6698L38.8219 21.9598C38.8612 21.9791 38.9201 21.9598 38.9201 21.9018L38.8415 21.3217ZM46.3661 29.9257C46.0714 27.8569 45.7964 25.7687 45.5017 23.6999C45.4231 23.0619 45.5606 22.8878 46.2089 22.9265C46.5233 22.9459 46.8376 22.9845 47.152 22.9652C47.5645 22.9459 47.7413 22.7912 47.8003 22.4045C47.9771 21.3217 48.1343 20.239 48.2718 19.1562C48.3307 18.5762 48.1343 18.3248 47.2305 18.2088C46.3268 18.0928 40.7865 19.1562 40.374 19.2722C39.9221 19.3882 39.8042 19.5622 39.8042 20.0456C39.8042 20.3163 39.9417 21.8824 39.981 22.4238C40.04 23.0039 40.2757 23.2165 40.8455 23.1972C41.0419 23.1972 41.8867 23.0619 42.1028 23.0619C42.5547 23.0232 42.6529 23.1005 42.6529 23.5452C42.6726 24.0479 43.0655 26.6195 41.3366 30.3704C41.2188 30.6218 41.3563 30.9312 41.651 30.9892C43.0066 31.2792 44.873 31.0665 45.4427 31.0278C46.15 30.9505 46.4643 30.6025 46.3661 29.9257ZM47.1913 17.01L47.5056 16.662C47.5252 16.6233 47.5056 16.5847 47.4663 16.5847L46.9948 16.546L46.759 16.14C46.7394 16.1013 46.6804 16.1013 46.6804 16.14L46.5036 16.5653L46.0321 16.662C45.9928 16.662 45.9732 16.72 46.0125 16.7394L46.3661 17.0487L46.3268 17.5128C46.3268 17.5514 46.3661 17.5708 46.4054 17.5514L46.7983 17.3001L47.2305 17.4934C47.2698 17.5128 47.3091 17.4741 47.2895 17.4354L47.1913 17.01ZM46.5626 12.9497C46.5626 11.2869 45.9928 7.76797 42.6922 7.86465C39.9024 7.94199 38.9398 11.5576 38.9398 13.2011C38.9398 15.4052 39.9417 17.9188 42.6333 17.9188C45.3052 17.8994 46.5626 14.6125 46.5626 12.9497ZM55.5802 30.1578C55.5606 29.3844 55.2266 21.1864 54.5586 18.7308C54.3425 17.9188 54.2443 17.8028 53.6942 17.7254C52.3779 17.5708 51.0419 17.6481 49.7453 17.8608C49.2345 17.9381 48.9987 18.1895 48.9398 18.7115C48.8612 19.3882 48.6844 21.9598 48.2914 24.0673C47.9182 26.1748 47.0144 29.5777 46.9162 30.3704C46.8573 30.8538 46.9751 30.9892 47.4663 31.0278C48.37 31.0858 49.3327 31.1245 50.2364 31.1245C50.6294 31.1245 50.8258 30.9118 50.8062 30.5251C50.7669 30.0418 50.0007 25.5367 51.4742 25.6334C52.4368 25.6914 52.0243 29.2104 51.8278 30.5251C51.7885 30.7958 51.985 31.0278 52.26 31.0278C52.9673 31.0472 54.1854 31.0472 54.6569 31.0278C55.2856 31.0085 55.5802 30.9312 55.5802 30.1578ZM65.4231 30.1578C65.7964 29.3844 66.4054 27.9923 66.818 26.9288C66.9358 26.6388 66.6804 26.3295 66.3465 26.3875C64.3425 26.7935 61.7296 27.1222 60.4918 26.8708C59.8828 26.7548 59.372 26.3295 59.3916 25.5561C59.4506 24.1833 59.6078 19.4849 59.6274 18.5182C59.647 17.9768 59.4506 17.7448 58.9005 17.7448C57.8789 17.7448 56.8573 17.7641 55.8357 17.8221C55.2266 17.8608 54.9712 18.0155 55.2266 19.1175C56.0321 22.5978 56.2482 29.4424 56.3072 30.1191C56.3661 30.7958 56.5036 30.9312 57.1913 30.9892C57.6431 31.0278 62.1225 30.9505 63.9103 30.8538C64.2639 30.8345 64.6176 30.7185 64.9319 30.5831C65.1284 30.5251 65.3445 30.3318 65.4231 30.1578ZM63.4781 21.7084C63.5763 21.3604 64.1068 19.5042 64.2836 18.6342C64.3818 18.1701 64.2443 17.9575 63.7924 17.8608C62.7708 17.6288 61.7296 17.6094 60.6883 17.6288C60.4722 17.6288 60.374 17.7448 60.3543 17.9575C60.3543 18.0928 60.1971 23.7192 60.1382 25.208C60.1186 25.8461 60.2364 26.0588 60.8848 26.1554C63.2423 26.4841 66.3465 25.6527 66.7983 25.5174C67.1913 25.382 67.2895 25.1887 67.1913 24.802C66.9948 24.0866 66.7983 23.3712 66.5429 22.6752C66.1696 21.6311 66.15 21.6311 65.1087 21.9404C64.7355 22.0564 64.3622 22.1531 63.9889 22.2305C63.537 22.3271 63.3799 22.0758 63.4781 21.7084ZM74.5586 28.5723C74.5783 28.3403 74.3818 28.1276 74.1657 28.1276C73.9496 28.1276 73.7335 28.3403 73.7335 28.553C73.7335 28.7657 73.9103 28.9397 74.1461 28.9397C74.3818 28.959 74.539 28.8043 74.5586 28.5723ZM74.4408 23.3712C74.4211 23.3132 74.3425 23.3132 74.3229 23.3712L73.9692 24.3186L73.2227 24.2993C73.1637 24.2993 73.1441 24.3573 73.1637 24.396L73.537 24.9567L73.1637 25.5367C73.1441 25.5754 73.1637 25.6334 73.2227 25.6334L73.9692 25.6141L74.3032 26.5421C74.3229 26.6001 74.4015 26.6001 74.4211 26.5421L74.7944 25.6141L75.5213 25.6334C75.5802 25.6334 75.5999 25.5754 75.5803 25.5367L75.148 24.9567L75.5606 24.4153C75.5999 24.3766 75.5606 24.3186 75.5017 24.3186L74.7747 24.338L74.4408 23.3712ZM71.7296 15.9466C71.7296 16.1593 71.9064 16.3333 72.1421 16.3333C72.3779 16.3333 72.5351 16.1786 72.5547 15.966C72.5744 15.7339 72.3779 15.5213 72.1618 15.5213C71.9457 15.5019 71.7296 15.7146 71.7296 15.9466ZM71.4349 17.7834C71.0026 17.7448 70.8455 18.0928 70.9044 18.5375C70.9634 19.0982 71.3956 22.0951 70.374 22.1918C69.3524 22.2885 69.5881 19.2916 69.5881 18.9629C69.5685 18.2861 69.4506 18.1508 68.7826 18.1315C68.5469 18.1315 66.6412 18.0541 65.9339 18.0735C65.3248 18.0928 65.1873 18.3828 65.3052 18.9822C65.6588 20.6643 68.0164 23.1972 68.1146 24.4153C68.2129 25.6334 66.5036 29.4424 66.2679 30.0224C66.1107 30.4091 66.2679 30.5638 66.6215 30.5638C68.5861 30.6025 71.7296 29.9644 72.1618 29.8097C72.6726 29.6164 72.8101 29.307 72.7315 28.7657C72.594 27.8569 72.4368 26.9482 72.2993 26.0394C72.1814 25.208 72.2404 24.4346 72.7708 23.7192C73.0459 23.3325 74.5586 21.2444 74.4015 18.8855C74.3622 18.4022 74.2639 18.1895 73.8514 18.0928C73.0655 17.9381 72.3975 17.8608 71.4349 17.7834ZM69.8239 12.6597L70.1382 13.0077L70.0203 13.4718C70.0203 13.5104 70.0596 13.5491 70.0793 13.5298L70.5115 13.3364L70.9241 13.5878C70.9634 13.6071 71.0026 13.5878 71.0026 13.5491L70.9437 13.0851L71.2973 12.7757C71.3366 12.7564 71.317 12.6984 71.2777 12.6984L70.8062 12.6017L70.6294 12.1763C70.6097 12.1377 70.5704 12.1377 70.5508 12.1763L70.315 12.5824L69.8435 12.621C69.8042 12.5824 69.7846 12.6404 69.8239 12.6597ZM64.8533 6.31786C63.0459 10.2235 62.9673 15.0766 62.9673 15.9273C62.9673 16.6427 63.0459 16.7587 63.8317 16.9907C64.9123 17.2807 67.0734 17.4741 68.763 17.4354C68.9791 17.4354 69.1755 17.4161 69.3916 17.3774C70.0989 17.2614 70.374 17.1067 70.3347 16.546C70.315 16.0433 70.2364 15.5213 70.1579 15.0186C70.0989 14.6512 69.8828 14.3612 69.4309 14.3612C67.4663 14.3418 66.484 14.5545 66.5626 13.7811C66.6019 13.4911 66.759 13.2977 67.1913 13.3558C68.1736 13.4911 68.1343 13.2204 68.2325 12.6404C68.3307 12.0603 68.1736 11.9056 67.8396 11.8283C67.6235 11.7703 67.3877 11.751 67.1716 11.693C66.9555 11.6349 66.8376 11.4609 66.9751 11.0162C67.1127 10.5715 67.2502 10.4555 67.7414 10.6295C67.9968 10.7069 68.2325 10.8035 68.4879 10.9002C68.6647 10.9582 68.8808 10.8809 68.9398 10.6875C69.1166 10.1655 69.2541 9.37277 69.1952 9.10208C69.1755 8.96673 69.097 8.83139 68.9987 8.73472C68.2325 8.058 66.9162 6.78189 65.9732 6.0665C65.5803 5.77648 65.0302 5.89249 64.8533 6.31786ZM58.3111 4.07501C55.9142 7.55529 54.4801 13.5298 53.93 16.372C53.8514 16.8167 53.9496 16.952 54.3818 17.0294C54.7355 17.0874 56.3858 17.1647 57.0341 17.1647C57.4859 17.1647 57.7806 17.1454 57.6628 16.1013C57.5645 15.0572 57.0734 11.751 58.2129 11.7123C59.3327 11.6736 58.763 15.2506 58.6844 16.3913C58.6451 16.8167 58.704 16.9327 59.1362 16.952C59.5488 16.9714 61.1795 16.9714 61.5724 16.9327C62.0635 16.8747 62.1421 16.8554 62.2404 16.2753C62.8691 12.8337 61.8082 10.9196 60.5704 9.81747C62.0243 9.81747 63.2423 9.46944 63.8907 6.85923C64.539 4.24902 61.0419 3.35962 59.9221 3.08893C59.372 2.93425 59.0184 3.0696 58.3111 4.07501ZM54.7158 8.54137C54.9516 8.54137 55.1087 8.38669 55.1284 8.174C55.148 7.94199 54.9516 7.7293 54.7355 7.7293C54.5193 7.7293 54.3032 7.94199 54.3032 8.15467C54.3032 8.36735 54.4801 8.54137 54.7158 8.54137ZM55.3838 4.17168C55.541 4.24902 55.6785 4.32636 55.8357 4.4037C55.6981 5.02242 54.9712 5.15776 54.5979 5.25444C54.2246 5.35111 54.2247 5.87315 54.873 6.0665C55.5017 6.25985 56.0911 6.12451 56.6019 5.66047C57.2895 5.02242 57.6235 4.19102 57.8789 3.32095C57.9968 2.91492 57.9378 2.72157 57.5449 2.56689C57.1127 2.37354 56.6608 2.21886 56.2089 2.08352C55.8553 1.98684 55.7178 2.04485 55.5017 2.39288C55.3248 2.70223 55.1677 3.01159 55.0302 3.34028C54.814 3.78499 54.8926 3.959 55.3838 4.17168ZM42.9476 4.07501C43.7531 5.08042 45.4624 7.49728 46.2286 8.90873C46.8966 10.1075 47.3091 11.2676 47.2502 12.737C47.152 15.1539 47.6038 17.01 50.5508 17.01C53.4977 17.01 54.1657 13.9745 53.7335 11.0742C53.4781 9.31476 53.1441 7.70997 53.3602 6.37586C53.5763 5.04175 54.4408 3.01159 54.5979 2.62489C54.7551 2.2382 54.7355 1.69682 53.6549 1.58081C52.5744 1.4648 51.4742 1.4068 50.5901 1.52281C49.706 1.61948 49.4702 1.94817 49.4506 2.47022C49.4113 3.18561 50.374 6.16318 50.6883 6.99458C50.983 7.82598 50.9241 9.35343 49.9221 9.46944C48.9201 9.58545 48.3897 8.58004 48.1932 6.27919C48.0753 4.98375 47.9575 4.07501 47.8592 3.18561C47.7806 2.2962 47.8199 1.8515 46.9555 1.8515C46.2482 1.8515 44.4015 2.31554 43.7335 2.60556C42.9869 2.93425 42.1028 3.03093 42.9476 4.07501ZM41.317 6.56921L41.9653 6.68522L42.2404 7.2846C42.26 7.3426 42.3386 7.3426 42.3582 7.2846L42.6726 6.70455L43.3209 6.62721C43.3799 6.62721 43.3995 6.54987 43.3602 6.51121L42.9083 6.04717L43.0459 5.40912C43.0655 5.35111 43.0066 5.31244 42.9476 5.33178L42.3582 5.6218L41.7885 5.29311C41.7296 5.27377 41.6706 5.31244 41.6903 5.35111L41.7689 5.98916L41.2777 6.43387C41.2384 6.49187 41.258 6.54987 41.317 6.56921ZM31.2384 13.1817C31.9457 13.3944 32.6529 13.6071 33.3602 13.8198C34.0282 14.0131 34.3032 14.4385 34.2836 15.0379C34.2443 15.9853 33.5567 17.5514 33.4977 17.9381C33.4388 18.3248 33.2227 18.6922 33.7924 18.7502C34.3622 18.8082 39.1166 18.6342 39.3131 18.5762C39.6078 18.4795 39.7649 18.1121 39.4702 17.6288C39.1559 17.1454 38.5076 15.2892 38.1539 14.2838C37.8003 13.2784 38.1343 12.099 38.5272 11.1516C38.9201 10.2042 40.8455 5.89249 40.8455 4.55838C40.8455 3.72698 40.1382 3.99767 39.5881 4.15235C38.3111 4.51971 36.3661 5.95049 35.6785 6.70455C35.1873 7.24593 35.148 7.49728 35.4624 8.13533C35.9142 9.04407 37.093 12.1183 35.8357 12.679C34.7355 13.1624 34.5193 9.3921 34.4408 8.87006C34.3622 8.34802 34.0478 8.25134 33.5763 8.59937C32.3582 9.52745 31.0419 11.4029 30.7472 11.925C30.4525 12.4083 30.4133 12.9304 31.2384 13.1817ZM31.1009 15.7146L30.7276 16.2947C30.708 16.3333 30.7276 16.3913 30.7865 16.3913L31.5331 16.372L31.8671 17.3001C31.8867 17.3581 31.9653 17.3581 31.985 17.3001L32.3582 16.372L33.0852 16.3913C33.1441 16.3913 33.1637 16.3333 33.1441 16.2947L32.7119 15.7146L33.1245 15.1732C33.1637 15.1346 33.1245 15.0766 33.0655 15.0766L32.3386 15.0959L31.985 14.1485C31.9653 14.0905 31.8867 14.0905 31.8671 14.1485L31.5135 15.0959L30.7669 15.0766C30.708 15.0766 30.6883 15.1346 30.7079 15.1732L31.1009 15.7146ZM29.4113 14.5158C29.4113 14.7285 29.5881 14.9025 29.8239 14.9025C30.0596 14.9025 30.2168 14.7479 30.2364 14.5352C30.2561 14.3032 30.0596 14.0905 29.8435 14.0905C29.6078 14.0905 29.4113 14.3032 29.4113 14.5158ZM28.1343 17.5901L28.4879 17.8994L28.4486 18.3635C28.4486 18.4022 28.4879 18.4215 28.5272 18.4022L28.9201 18.1508L29.3524 18.3442C29.3916 18.3635 29.4309 18.3248 29.4113 18.2861L29.2934 17.8414L29.6078 17.4934C29.6274 17.4547 29.6078 17.4161 29.5685 17.4161L29.0969 17.3774L28.8612 16.9714C28.8415 16.9327 28.7826 16.9327 28.7826 16.9714L28.6058 17.3967L28.1343 17.4934C28.1146 17.5128 28.1146 17.5514 28.1343 17.5901ZM26.7197 22.8878C26.8376 23.4679 27.093 23.6226 27.7021 23.5452C28.2129 23.4872 28.7237 23.4486 29.2345 23.4486C29.6078 23.4486 29.8828 23.8159 29.647 24.4153C29.4113 25.0147 28.3897 27.7409 27.9771 28.7657C27.6824 29.5004 27.8789 29.8484 28.6647 29.9257C29.5881 30.0224 32.319 30.0998 32.7315 30.0804C33.4977 30.0611 33.6746 29.8677 33.4781 29.133C33.0655 27.6056 32.9083 25.382 32.869 24.4733C32.8101 23.5646 33.1441 23.3906 33.537 23.3906C33.9889 23.3906 34.4604 23.3906 34.9123 23.3906C35.4624 23.3906 35.7964 23.1392 35.9535 22.5978C36.0714 22.1918 36.4447 20.6063 36.5036 20.2196C36.5822 19.7169 36.4054 19.4462 35.8749 19.4656C33.8121 19.5042 32.6333 19.5816 31.3759 19.3882C30.3543 19.2336 29.3327 18.9822 28.3111 18.7695C27.6824 18.6535 27.4074 18.8082 27.2698 19.4076C27.093 20.065 26.6019 22.3078 26.7197 22.8878ZM66.2286 37.6984C65.8749 37.6984 65.5999 37.9691 65.5999 38.3171C65.5999 38.6651 65.8749 38.9358 66.2286 38.9358C66.5822 38.9358 66.8573 38.6651 66.8573 38.3171C66.8573 37.9884 66.5822 37.6984 66.2286 37.6984ZM51.7492 21.6504C51.3366 21.6504 51.0026 21.9598 50.983 22.3658C50.983 22.7718 51.2973 23.1199 51.7099 23.1199C52.1225 23.1392 52.4368 22.8105 52.4565 22.4045C52.4761 21.9598 52.1814 21.6504 51.7492 21.6504ZM38.095 25.5367C37.7413 25.5367 37.4663 25.8074 37.4663 26.1554C37.4663 26.5035 37.7413 26.7742 38.095 26.7742C38.4486 26.7742 38.7237 26.5035 38.7237 26.1554C38.7237 25.8268 38.4486 25.5367 38.095 25.5367ZM42.6922 10.4169C42.26 10.4169 41.8474 10.8422 41.8671 11.2869C41.8867 11.7123 42.2797 12.0797 42.7119 12.0603C43.1441 12.041 43.4977 11.6543 43.4977 11.2289C43.4977 10.8035 43.1048 10.4169 42.6922 10.4169ZM61.2384 39.6125C60.8848 39.6125 60.6097 39.8832 60.6097 40.2312C60.6097 40.5793 60.8848 40.85 61.2384 40.85C61.592 40.85 61.8671 40.5793 61.8671 40.2312C61.8671 39.8832 61.592 39.6125 61.2384 39.6125Z" fill="currentColor"/>
</svg>
