<svg width="24" height="24" viewBox="0 0 24 24"  xmlns="http://www.w3.org/2000/svg">
    <path d="M6.40309 6.50587C5.93231 6.63893 5.50122 6.88511 5.14737 7.22294C4.79352 7.56078 4.52766 7.98002 4.37295 8.44414L0 21.5625L0.68859 22.2511L7.72496 15.2147C7.58481 14.9213 7.49996 14.5969 7.49996 14.25C7.49996 13.0074 8.5073 12.0001 9.74995 12.0001C10.9926 12.0001 11.9999 13.0074 11.9999 14.25C11.9999 15.4927 10.9926 16.5 9.74995 16.5C9.40308 16.5 9.07871 16.4152 8.78527 16.275L1.7489 23.3114L2.43749 24L15.5559 19.6271C16.02 19.4723 16.4392 19.2065 16.7771 18.8526C17.1149 18.4988 17.3611 18.0677 17.4941 17.5969L19.4999 10.5001L13.4999 4.5001L6.40309 6.50587ZM23.3408 3.47682L20.5232 0.659176C19.6443 -0.219725 18.2188 -0.219725 17.3399 0.659176L14.6891 3.30995L20.6901 9.31085L23.3408 6.66009C24.2197 5.78118 24.2197 4.35619 23.3408 3.47682Z" fill="currentColor"/>
</svg>
