<svg width="27" height="26" viewBox="0 0 27 26" xmlns="http://www.w3.org/2000/svg">
    <path d="M24.425 2.87C25.1239 3.5649 25.6785 4.39111 26.057 5.30111C26.4354 6.2111 26.6303 7.18694 26.6303 8.1725C26.6303 9.15806 26.4354 10.1339 26.057 11.0439C25.6785 11.9539 25.1239 12.7801 24.425 13.475C22.16 15.74 18.8 16.235 16.04 14.99L13.235 19.955L8.75 20.42L6.5 26H2L0.5 23L12.425 11.465C11.045 8.66 11.495 5.195 13.82 2.87C14.5149 2.17111 15.3411 1.61649 16.2511 1.23803C17.1611 0.859574 18.1369 0.664742 19.1225 0.664742C20.1081 0.664742 21.0839 0.859574 21.9939 1.23803C22.9039 1.61649 23.7301 2.17111 24.425 2.87ZM20.66 8.555C21.77 8.555 22.655 7.655 22.655 6.545C22.655 6.0159 22.4448 5.50846 22.0707 5.13433C21.6965 4.76019 21.1891 4.55 20.66 4.55C20.1309 4.55 19.6235 4.76019 19.2493 5.13433C18.8752 5.50846 18.665 6.0159 18.665 6.545C18.665 7.655 19.565 8.555 20.66 8.555Z" fill="currentColor"/>
</svg>
