<svg width="24" height="24" viewBox="0 0 24 24" xmlns="http://www.w3.org/2000/svg">
    <path d="M13 3C13.5523 3 14 3.44772 14 4C14 4.51283 13.614 4.93551 13.1166 4.99327L13 5H5V19H19V11C19 10.4477 19.4477 10 20 10C20.5128 10 20.9355 10.386 20.9933 10.8834L21 11V19C21 20.0544 20.1841 20.9182 19.1493 20.9945L19 21H5C3.94564 21 3.08183 20.1841 3.00549 19.1493L3 19V5C3 3.94564 3.81588 3.08183 4.85074 3.00549L5 3H13ZM19.2426 3.34334C19.6331 2.95281 20.2663 2.95281 20.6568 3.34334C21.0173 3.70382 21.045 4.27105 20.74 4.66334L20.6568 4.75755L10.7573 14.657C10.3668 15.0476 9.73363 15.0476 9.34311 14.657C8.98262 14.2965 8.95489 13.7294 9.25992 13.337L9.34311 13.2428L19.2426 3.34334Z" fill="currentColor"/>
</svg>
