<svg width="32" height="32" viewBox="0 0 32 32" xmlns="http://www.w3.org/2000/svg">
    <path d="M17.3333 4C18.0697 4 18.6667 4.59696 18.6667 5.33333C18.6667 6.01711 18.152 6.58068 17.4888 6.6577L17.3333 6.66667H6.66667V25.3333H25.3333V14.6667C25.3333 13.9303 25.9303 13.3333 26.6667 13.3333C27.3505 13.3333 27.914 13.848 27.991 14.5112L28 14.6667V25.3333C28 26.7392 26.9122 27.8909 25.5324 27.9927L25.3333 28H6.66667C5.26085 28 4.10911 26.9122 4.00731 25.5324L4 25.3333V6.66667C4 5.26085 5.08784 4.10911 6.46765 4.00731L6.66667 4H17.3333ZM25.6568 4.45779C26.1775 3.93708 27.0217 3.93708 27.5424 4.45779C28.023 4.93843 28.06 5.69474 27.6533 6.21779L27.5424 6.3434L14.3431 19.5427C13.8224 20.0635 12.9782 20.0635 12.4575 19.5427C11.9768 19.0621 11.9399 18.3058 12.3466 17.7827L12.4575 17.6571L25.6568 4.45779Z" fill="currentColor"/>
</svg>
