<svg width="40" height="40" viewBox="0 0 40 40" xmlns="http://www.w3.org/2000/svg">
<path d="M18.6871 17.1283C18.3072 17.888 19.1132 18.694 19.873 18.3141C19.9579 18.2717 20.0355 18.2158 20.1027 18.1486L28.1263 10.125C28.4714 9.77982 28.4714 9.22018 28.1263 8.875C27.7811 8.52982 27.2214 8.52982 26.8763 8.875L18.8527 16.8986C18.7855 16.9658 18.7296 17.0433 18.6871 17.1283ZM17.0445 22.8641C16.2392 23.0871 15.4983 22.6066 14.9666 21.9619C14.4249 21.3049 13.9334 20.5637 14.1812 19.7491L15.4951 15.4301C15.5974 15.0938 15.7865 14.7903 16.0435 14.5504L21.8383 9.13914C22.2103 8.79174 22.2484 8.21505 21.9252 7.82177C21.5635 7.38148 20.9009 7.34913 20.4979 7.75208L14.1065 14.1435C13.8725 14.3775 13.7002 14.6659 13.6051 14.983L11.0673 23.4424C10.6096 24.968 12.032 26.3904 13.5576 25.9327L22.017 23.3949C22.3341 23.2998 22.6225 23.1275 22.8565 22.8935L29.7411 16.0089C29.9069 15.8431 30 15.6183 30 15.3839C30 14.5965 29.048 14.2022 28.4912 14.759L22.0405 21.2107C21.7963 21.455 21.493 21.6318 21.1601 21.724L17.0445 22.8641Z"/>
</svg>
