<svg width="24" height="28" viewBox="0 0 24 28" fill="none" xmlns="http://www.w3.org/2000/svg">
    <path d="M6.5 11.1111H3.75C3.02065 11.1111 2.32118 11.4155 1.80546 11.9572C1.28973 12.499 1 13.2338 1 14V24.1111C1 24.8773 1.28973 25.6121 1.80546 26.1539C2.32118 26.6956 3.02065 27 3.75 27H20.25C20.9793 27 21.6788 26.6956 22.1945 26.1539C22.7103 25.6121 23 24.8773 23 24.1111V14C23 13.2338 22.7103 12.499 22.1945 11.9572C21.6788 11.4155 20.9793 11.1111 20.25 11.1111H17.5M6.5 11.1111V6.77778C6.5 5.24542 7.07946 3.77582 8.11091 2.69227C9.14236 1.60873 10.5413 1 12 1C13.4587 1 14.8576 1.60873 15.8891 2.69227C16.9205 3.77582 17.5 5.24542 17.5 6.77778V11.1111M6.5 11.1111H17.5M12 16.8889V21.2222" stroke="currentColor" stroke-width="1.8" stroke-linecap="round" stroke-linejoin="round"/>
</svg>
