<svg width="22" height="12" viewBox="0 0 22 12" xmlns="http://www.w3.org/2000/svg">
    <path d="M21.5 2.25V0.75H15.5V11.25H17V6.75H20.75V5.25H17V2.25H21.5ZM5 0.75H0.5V11.25H2V7.5H5C5.39782 7.5 5.77936 7.34196 6.06066 7.06066C6.34196 6.77936 6.5 6.39782 6.5 6V2.25C6.5 1.85218 6.34196 1.47064 6.06066 1.18934C5.77936 0.908036 5.39782 0.75 5 0.75ZM5 6H2V2.25H5V6ZM11 11.25H8V0.75H11C11.7956 0.75 12.5587 1.06607 13.1213 1.62868C13.6839 2.19129 14 2.95435 14 3.75V8.25C14 9.04565 13.6839 9.80871 13.1213 10.3713C12.5587 10.9339 11.7956 11.25 11 11.25ZM9.5 9.75H11C11.3978 9.75 11.7794 9.59196 12.0607 9.31066C12.342 9.02936 12.5 8.64782 12.5 8.25V3.75C12.5 3.35218 12.342 2.97064 12.0607 2.68934C11.7794 2.40804 11.3978 2.25 11 2.25H9.5V9.75Z" fill="currentColor"/>
</svg>
