<svg width="30" height="30" viewBox="0 0 30 30" xmlns="http://www.w3.org/2000/svg">
    <path d="M18.3686 26.7059H26.3686V28.7059H18.3686V26.7059Z" fill="currentColor"/>
    <path d="M18.3686 22.7059H30.3686V24.7059H18.3686V22.7059Z" fill="currentColor"/>
    <path d="M18.3686 18.7059H30.3686V20.7059H18.3686V18.7059Z" fill="currentColor"/>
    <path d="M20.9176 11.9229L16.3686 2.70594L11.8196 11.9229L1.64857 13.4009L9.00858 20.5759L7.27057 30.7059L14.3686 26.9749V24.7149L9.92758 27.0499L10.9796 20.9139L11.1576 19.8769L10.4046 19.1439L5.94658 14.7969L12.1076 13.9019L13.1476 13.7509L13.6136 12.8079L16.3686 7.22494L19.1236 12.8079L19.5896 13.7509L20.6296 13.9019L28.0836 14.9869L28.3686 13.0059L20.9176 11.9229Z" fill="currentColor"/>
</svg>
