<svg width="22" height="27" viewBox="0 0 23 30" xmlns="http://www.w3.org/2000/svg">
    <path d="M2.8125 11.256C2.56386 11.256 2.3254 11.3547 2.14959 11.5306C1.97377 11.7064 1.875 11.9448 1.875 12.1935V23.4435C1.875 23.6921 1.97377 23.9306 2.14959 24.1064C2.3254 24.2822 2.56386 24.381 2.8125 24.381H19.6875C19.9361 24.381 20.1746 24.2822 20.3504 24.1064C20.5262 23.9306 20.625 23.6921 20.625 23.4435V12.1935C20.625 11.9448 20.5262 11.7064 20.3504 11.5306C20.1746 11.3547 19.9361 11.256 19.6875 11.256H2.8125ZM2.8125 9.38097H19.6875C20.4334 9.38097 21.1488 9.67728 21.6762 10.2047C22.2037 10.7322 22.5 11.4475 22.5 12.1935V23.4435C22.5 24.1894 22.2037 24.9048 21.6762 25.4322C21.1488 25.9597 20.4334 26.256 19.6875 26.256H2.8125C2.06658 26.256 1.35121 25.9597 0.823762 25.4322C0.296316 24.9048 0 24.1894 0 23.4435V12.1935C0 11.4475 0.296316 10.7322 0.823762 10.2047C1.35121 9.67728 2.06658 9.38097 2.8125 9.38097Z" fill="currentColor"/>
    <path d="M11.25 14.0685C11.4986 14.0685 11.7371 14.1672 11.9129 14.3431C12.0887 14.5189 12.1875 14.7573 12.1875 15.006V20.631C12.1875 20.8796 12.0887 21.1181 11.9129 21.2939C11.7371 21.4697 11.4986 21.5685 11.25 21.5685C11.0014 21.5685 10.7629 21.4697 10.5871 21.2939C10.4113 21.1181 10.3125 20.8796 10.3125 20.631V15.006C10.3125 14.7573 10.4113 14.5189 10.5871 14.3431C10.7629 14.1672 11.0014 14.0685 11.25 14.0685ZM16.4738 5.41722C15.9871 4.20477 15.0936 3.19947 13.9467 2.57376C12.7999 1.94805 11.471 1.74093 10.188 1.98794C8.90513 2.23494 7.74815 2.92067 6.91557 3.9275C6.08299 4.93433 5.62671 6.19949 5.625 7.50597V9.38097H15.9375L18.75 10.506V11.256H3.75V7.50597C3.74862 5.76197 4.35505 4.072 5.46499 2.72679C6.57492 1.38158 8.11896 0.465232 9.83148 0.13538C11.544 -0.194472 13.318 0.0827953 14.8481 0.919485C16.3783 1.75617 17.5691 3.09998 18.2156 4.71972L16.4738 5.41722Z" fill="currentColor"/>
</svg>
