<svg width="24" height="21" viewBox="-6 0 30 22" xmlns="http://www.w3.org/2000/svg">
    <path d="M2.40124 0H3.60185C4.86709 0 5.90478 0.980181 5.9965 2.22211L6.00309 2.40124V19.2099C6.00309 20.4751 5.02291 21.5128 3.78097 21.6045L3.60185 21.6111H2.40124C1.136 21.6111 0.0983117 20.6309 0.00659032 19.389L0 19.2099V2.40124C0 1.136 0.98018 0.0983117 2.22211 0.00659032L2.40124 0ZM9.60494 0H10.8056C12.0708 0 13.1085 0.980181 13.2002 2.22211L13.2068 2.40124V19.2099C13.2068 20.4751 12.2266 21.5128 10.9847 21.6045L10.8056 21.6111H9.60494C8.33971 21.6111 7.30202 20.6309 7.2103 19.389L7.20371 19.2099V2.40124C7.20371 1.136 8.18389 0.0983117 9.42582 0.00659032L9.60494 0ZM17.9784 2.40184C18.9864 2.40184 19.9092 3.03889 20.2475 4.0177L20.304 4.20516L23.9239 18.3076C24.239 19.5327 23.5478 20.7819 22.3669 21.1791L22.195 21.2299L21.0316 21.5289C20.8323 21.5793 20.6306 21.6045 20.4337 21.6045C19.4268 21.6045 18.503 20.9664 18.1656 19.9875L18.1093 19.8L14.4882 5.69873C14.1742 4.47246 14.8644 3.22432 16.0462 2.82727L16.2183 2.77643L17.3805 2.47747C17.5798 2.42585 17.7815 2.40184 17.9784 2.40184ZM3.60185 1.80093H2.40124C2.10668 1.80093 1.86146 2.01437 1.8106 2.29369L1.80093 2.40124V19.2099C1.80093 19.5034 2.01342 19.7494 2.29337 19.8005L2.40124 19.8102H3.60185C3.8964 19.8102 4.14163 19.5967 4.19248 19.3174L4.20216 19.2099V2.40124C4.20216 2.10775 3.98967 1.8617 3.70971 1.81064L3.60185 1.80093ZM10.8056 1.80093H9.60494C9.31039 1.80093 9.06517 2.01437 9.01431 2.29369L9.00463 2.40124V19.2099C9.00463 19.5034 9.21713 19.7494 9.49708 19.8005L9.60494 19.8102H10.8056C11.1001 19.8102 11.3453 19.5967 11.3962 19.3174L11.4059 19.2099V2.40124C11.4059 2.10775 11.1934 1.8617 10.9134 1.81064L10.8056 1.80093ZM17.9796 4.20276L17.9035 4.20741L17.8283 4.22197L16.6661 4.51973C16.456 4.57375 16.3456 4.71543 16.2975 4.79707C16.2601 4.86046 16.2065 4.97918 16.2142 5.1317L16.2327 5.2521L19.8538 19.3522C19.933 19.6619 20.2104 19.8036 20.4337 19.8036L20.5087 19.7989L20.5838 19.7844L21.7471 19.4854C22.0332 19.4129 22.2177 19.1449 22.197 18.8619L22.1794 18.7554L18.5595 4.65299C18.4791 4.34444 18.2029 4.20276 17.9796 4.20276Z" fill="currentColor"/>
</svg>
